<svg width="199" height="176" viewBox="0 0 199 176" fill="none" xmlns="http://www.w3.org/2000/svg">
<mask id="mask0_1071_4556" style="mask-type:luminance" maskUnits="userSpaceOnUse" x="0" y="0" width="199" height="176">
<path d="M198.312 0H0.3125V176H198.312V0Z" fill="white"/>
</mask>
<g mask="url(#mask0_1071_4556)">
<path fill-rule="evenodd" clip-rule="evenodd" d="M78.1371 82.0412C79.0555 83.7711 80.5056 84.9045 80.5056 84.9045C80.5056 84.9045 82.2346 83.5937 83.7427 82.816C84.6243 82.361 85.6264 81.9773 86.3119 81.8811C87.0866 82.3622 88.9376 83.4955 90.524 84.2704C93.9889 85.9661 98.2448 87.3074 98.2448 87.3074C98.2448 87.3074 98.9809 85.9165 99.2262 84.8929C99.542 85.1545 100.217 85.9834 100.217 85.9834L100.888 85.8769C100.97 86.2668 100.874 87.5797 100.874 87.5797C100.874 87.5797 101.67 87.3507 102.671 87.3065C103.476 87.2702 105.516 87.6085 107.374 89.5386L110.485 89.5402V87.7781C110.853 87.5941 111.416 87.3564 112.14 87.1922C113.288 87.6642 114.292 88.293 115.017 88.8335C115.698 89.3451 116.627 90.2519 116.627 90.2519C118.689 90.3237 120.506 89.4235 121.348 88.6957C122.433 87.7682 123.196 86.2994 123.196 86.2994C123.196 86.2994 122.292 85.8171 121.235 85.2119C121.865 84.8698 122.287 84.251 122.287 83.5426C122.287 82.4629 121.311 81.5874 120.107 81.5874C120.062 81.5874 120.018 81.5907 119.975 81.5936C120.08 80.9962 120.175 80.2787 120.175 79.6359C120.175 78.2546 119.268 76.8205 119.268 76.8205H116.696C116.696 76.8205 116.132 77.3857 115.977 77.7075H115.431C115.205 77.7063 114.936 77.7376 114.788 77.7917C114.913 77.5623 115.15 77.0329 115.153 76.289C115.154 76.0258 115.123 75.737 115.048 75.4309C115.227 75.1388 115.38 74.7456 115.378 74.2761C115.378 73.9951 115.324 73.6977 115.213 73.3965V68.3907H102.328C103.172 66.6855 104.795 64.1906 104.794 60.5934C104.788 59.59 104.595 58.7013 104.337 57.9603H109.929V48.9463H71.9622V57.9586H78.1813V63.5734C77.9954 63.8911 77.8191 64.3651 77.8227 64.984C77.8237 65.9701 78.2499 67.2367 79.5044 68.8313C80.0057 69.4737 80.2206 70.2939 80.2206 71.2094C80.2234 72.3205 79.8979 73.5194 79.5504 74.4213C79.3092 75.0484 78.6665 76.2746 78.6665 76.2746C78.6665 76.2746 78.8442 77.2541 79.9237 78.6366C79.7493 79.2175 79.4487 79.8735 79.1623 80.4033C78.7637 81.1397 78.1371 82.0412 78.1371 82.0412Z" fill="#FFFFFE"/>
<path fill-rule="evenodd" clip-rule="evenodd" d="M116.141 83.4317C116.141 83.4317 116.279 83.0966 117.51 82.6928C118.013 82.5275 118.314 82.327 118.314 82.327C118.314 82.327 119.104 79.2084 118.291 77.9786H117.009C116.668 78.3576 116.579 78.865 116.579 78.865H115.165C114.594 78.865 114.198 79.2747 114.025 79.7088C113.808 80.2481 113.344 80.6142 112.806 80.6142C112.061 80.6142 111.457 79.8935 111.457 79.0009C111.457 78.1149 112.061 77.3891 112.806 77.3891H113.388C113.388 77.3891 113.977 76.4696 113.404 75.2414C113.404 75.2414 114.215 74.7266 113.717 73.6235V69.5128H100.717V68.4851C101.549 66.5806 103.326 64.2158 103.326 60.567C103.326 58.0634 101.881 56.2363 101.881 56.2363H94.841V70.7389C94.841 70.7389 97.2038 70.7389 97.8377 70.7389C97.8377 71.4066 97.8377 76.9078 97.8377 77.5776C97.0418 77.5776 84.0999 77.5776 83.304 77.5776C83.304 76.9078 83.304 71.4066 83.304 70.7389C83.9379 70.7389 86.2975 70.7389 86.2975 70.7389V56.2363H79.2558V63.8857C79.2558 63.8857 77.9372 65.1039 80.3486 68.2014C82.7418 71.2712 79.8158 76.4414 79.8158 76.4414C80.1384 77.5366 81.0927 78.3663 81.0927 78.3663C80.7842 80.1188 79.3632 82.2032 79.3632 82.2032C79.8162 83.1762 80.3248 83.5444 80.3248 83.5444C80.3248 83.5444 84.0003 80.7998 86.482 80.7998C86.482 80.7998 88.977 82.4124 90.9208 83.3642C94.2746 85.0161 97.352 85.9991 97.352 85.9991C97.8611 84.949 97.8808 84.167 97.8808 84.167C97.6256 83.6231 96.9257 83.0457 96.9257 83.0457L97.3346 82.3875C97.3346 82.3875 98.9644 83.0672 100.507 84.8446L101.49 84.6881C101.79 85.2029 101.955 85.9199 101.935 86.3023C101.935 86.3023 104.676 85.8458 107.636 88.5109L108.996 88.5084V87.2562C108.996 87.2562 110.11 86.4452 112.007 86.113C114.904 87.1879 116.894 89.2146 116.894 89.2146C119.971 89.0854 121.27 86.8093 121.27 86.8093C118.157 85.1619 116.141 83.4317 116.141 83.4317Z" fill="#0B141D"/>
<path fill-rule="evenodd" clip-rule="evenodd" d="M73.1179 49.9873V56.7795H77.8845L77.8835 55.1053H87.6143V71.7662H84.6169V76.3699H96.7056V71.7662H93.7041V55.1053H103.429L103.43 56.7812H108.558V49.9873H73.1179Z" fill="#200708"/>
<path fill-rule="evenodd" clip-rule="evenodd" d="M13.132 105.117C13.132 107.606 13.2075 108.688 13.5435 108.994C13.8416 109.264 14.3264 109.383 15.7803 109.383C16.7705 109.383 17.5903 109.366 18.0371 108.875C18.2821 108.604 18.4665 108.181 18.5233 107.86C18.5402 107.724 18.5792 107.64 18.6895 107.64C18.7838 107.64 18.8025 107.707 18.8025 107.894C18.8025 108.08 18.6735 109.094 18.5233 109.584C18.3915 109.976 18.3365 110.043 17.3482 110.043C14.6628 110.043 13.4305 109.942 12.3496 109.942C12.2737 109.942 11.9578 109.958 11.5847 109.958C11.2121 109.976 10.8014 109.991 10.5226 109.991C10.3157 109.991 10.2237 109.958 10.2237 109.855C10.2237 109.806 10.2599 109.755 10.372 109.755C10.5405 109.755 10.7643 109.721 10.9324 109.689C11.3054 109.619 11.397 109.247 11.4721 108.755C11.5668 108.046 11.5668 106.708 11.5668 105.083V102.105C11.5668 99.4667 11.5668 98.9936 11.5293 98.4507C11.4913 97.875 11.3416 97.6046 10.7264 97.4858C10.5776 97.4513 10.2599 97.4339 10.0919 97.4339C10.0168 97.4339 9.94263 97.4023 9.94263 97.3338C9.94263 97.232 10.0365 97.1992 10.2406 97.1992C11.0816 97.1992 12.2558 97.2491 12.3496 97.2491C12.4426 97.2491 13.8036 97.1992 14.3643 97.1992C14.5694 97.1992 14.6628 97.232 14.6628 97.3338C14.6628 97.4023 14.5887 97.4339 14.5131 97.4339C14.3836 97.4339 14.1208 97.4513 13.897 97.4858C13.3572 97.5722 13.2075 97.8568 13.17 98.4507C13.132 98.9936 13.132 99.4667 13.132 102.105V105.117Z" fill="#0B141D"/>
<path fill-rule="evenodd" clip-rule="evenodd" d="M27.8804 109.75C29.6001 109.75 33.1504 108.877 33.1504 103.981C33.1504 99.9435 30.3624 97.7712 27.3462 97.7712C24.1581 97.7712 21.7716 99.6234 21.7716 103.308C21.7716 107.228 24.4425 109.75 27.8804 109.75ZM27.4807 97.1992C31.7761 97.1992 34.9816 99.5891 34.9816 103.51C34.9816 107.278 31.9668 110.391 27.3659 110.391C22.1343 110.391 19.9583 106.808 19.9583 103.778C19.9583 101.055 22.2121 97.1992 27.4807 97.1992Z" fill="#0B141D"/>
<path fill-rule="evenodd" clip-rule="evenodd" d="M38.1319 102.166C38.1319 99.495 38.1319 99.016 38.0937 98.4663C38.0579 97.8835 37.9104 97.6097 37.2986 97.4894C37.1515 97.4545 36.8379 97.4368 36.6718 97.4368C36.5983 97.4368 36.5225 97.4049 36.5225 97.3355C36.5225 97.2324 36.6146 97.1992 36.8188 97.1992C37.6517 97.1992 38.7791 97.2497 38.9456 97.2497C39.1117 97.2497 40.2201 97.1992 40.7756 97.1992C40.9794 97.1992 41.072 97.2324 41.072 97.3355C41.072 97.4049 40.9966 97.4368 40.9245 97.4368C40.7924 97.4368 40.6825 97.4545 40.462 97.4894C39.9636 97.5584 39.812 97.8649 39.7766 98.4663C39.7403 99.016 39.7403 99.495 39.7403 102.166V104.566C39.7403 107.035 40.3317 108.097 41.1269 108.799C42.0314 109.586 42.8624 109.739 43.9199 109.739C45.0473 109.739 46.1543 109.242 46.8228 108.506C47.6724 107.531 47.8935 106.073 47.8935 104.309V102.166C47.8935 99.495 47.8935 99.016 47.8576 98.4663C47.82 97.8835 47.6724 97.6097 47.0625 97.4894C46.9131 97.4545 46.6 97.4368 46.4334 97.4368C46.3599 97.4368 46.2859 97.4049 46.2859 97.3355C46.2859 97.2324 46.3771 97.1992 46.5805 97.1992C47.4137 97.1992 48.4299 97.2497 48.5411 97.2497C48.6696 97.2497 49.5401 97.1992 50.0956 97.1992C50.2976 97.1992 50.3902 97.2324 50.3902 97.3355C50.3902 97.4049 50.318 97.4368 50.2427 97.4368C50.1124 97.4368 50.003 97.4368 49.7802 97.4894C49.2814 97.5769 49.1343 97.8649 49.0967 98.4663C49.0585 99.016 49.0585 99.495 49.0585 102.166V104C49.0585 105.85 48.8361 107.906 47.3588 109.124C46.0258 110.219 44.6411 110.391 43.5496 110.391C42.9205 110.391 41.0529 110.323 39.7403 109.174C38.834 108.369 38.1319 107.17 38.1319 104.668V102.166Z" fill="#0B141D"/>
<path fill-rule="evenodd" clip-rule="evenodd" d="M56.584 105.116C56.584 106.747 56.584 108.091 56.6844 108.803C56.7424 109.296 56.8581 109.671 57.4452 109.74C57.7188 109.773 58.1485 109.807 58.3223 109.807C58.4423 109.807 58.4797 109.858 58.4797 109.907C58.4797 109.994 58.3818 110.043 58.1682 110.043C57.0914 110.043 55.8592 109.994 55.7632 109.994C55.6633 109.994 54.433 110.043 53.8459 110.043C53.6299 110.043 53.5324 110.011 53.5324 109.907C53.5324 109.858 53.5723 109.807 53.6899 109.807C53.8675 109.807 54.0993 109.773 54.2774 109.74C54.6648 109.671 54.7647 109.296 54.8424 108.803C54.9404 108.091 54.9404 106.747 54.9404 105.116V102.125C54.9404 99.4761 54.9404 99.001 54.902 98.4559C54.8602 97.8778 54.6648 97.5888 54.2357 97.5029C54.0216 97.4524 53.7676 97.4349 53.6299 97.4349C53.5497 97.4349 53.4719 97.4032 53.4719 97.3344C53.4719 97.2322 53.5723 97.1992 53.7859 97.1992C54.433 97.1992 55.6633 97.2493 55.7632 97.2493C55.8592 97.2493 57.0914 97.1992 57.6785 97.1992C57.8945 97.1992 57.9925 97.2322 57.9925 97.3344C57.9925 97.4032 57.9128 97.4349 57.8345 97.4349C57.6992 97.4349 57.5806 97.4524 57.3454 97.487C56.8183 97.5738 56.6642 97.8595 56.6219 98.4559C56.584 99.001 56.584 99.4761 56.584 102.125V105.116Z" fill="#0B141D"/>
<path fill-rule="evenodd" clip-rule="evenodd" d="M62.2321 109.938C61.9661 109.818 61.9465 109.75 61.9465 109.299C61.9465 108.456 62.0226 107.784 62.0398 107.515C62.0594 107.329 62.0982 107.245 62.1933 107.245C62.3095 107.245 62.3273 107.295 62.3273 107.429C62.3273 107.582 62.3273 107.817 62.3837 108.053C62.6669 109.299 63.9234 109.768 65.1971 109.768C67.0195 109.768 67.9125 108.609 67.9125 107.529C67.9125 106.37 67.3634 105.697 65.7285 104.502L64.8743 103.88C62.8591 102.415 62.4028 101.373 62.4028 100.229C62.4028 98.4287 63.9234 97.1992 66.3383 97.1992C67.0779 97.1992 67.6293 97.2678 68.1071 97.369C68.4664 97.4367 68.6194 97.4536 68.7687 97.4536C68.9208 97.4536 68.9614 97.4862 68.9614 97.5705C68.9614 97.6547 68.8835 98.211 68.8835 99.3533C68.8835 99.6234 68.8485 99.7411 68.7514 99.7411C68.639 99.7411 68.6194 99.6568 68.5979 99.523C68.5788 99.3194 68.4664 98.866 68.3535 98.681C68.2373 98.496 67.7245 97.7894 65.9754 97.7894C64.6648 97.7894 63.6397 98.5133 63.6397 99.7411C63.6397 100.7 64.1679 101.274 65.9558 102.568L66.4881 102.938C68.7323 104.502 69.2656 105.546 69.2656 106.89C69.2656 107.582 68.9614 108.859 67.6485 109.684C66.8296 110.19 65.8046 110.391 64.7777 110.391C63.8842 110.391 63.0084 110.273 62.2321 109.938Z" fill="#0B141D"/>
<path fill-rule="evenodd" clip-rule="evenodd" d="M75.4571 105.116C75.4571 106.747 75.4571 108.091 75.5569 108.803C75.6106 109.296 75.7286 109.671 76.3172 109.74C76.5868 109.773 77.0199 109.807 77.1974 109.807C77.3135 109.807 77.3552 109.858 77.3552 109.907C77.3552 109.994 77.2535 110.043 77.0401 110.043C75.9641 110.043 74.7323 109.994 74.6345 109.994C74.539 109.994 73.3077 110.043 72.7187 110.043C72.5071 110.043 72.4093 110.011 72.4093 109.907C72.4093 109.858 72.4472 109.807 72.5628 109.807C72.7388 109.807 72.9739 109.773 73.1518 109.74C73.5428 109.671 73.6368 109.296 73.7145 108.803C73.8166 108.091 73.8167 106.747 73.8167 105.116V102.125C73.8167 99.4761 73.8167 99.001 73.7788 98.4559C73.7365 97.8778 73.5428 97.5888 73.1077 97.5029C72.8962 97.4524 72.641 97.4349 72.5071 97.4349C72.4275 97.4349 72.3474 97.4032 72.3474 97.3344C72.3474 97.2322 72.4472 97.1992 72.6626 97.1992C73.3077 97.1992 74.539 97.2493 74.6345 97.2493C74.7323 97.2493 75.9641 97.1992 76.5513 97.1992C76.7623 97.1992 76.8607 97.2322 76.8607 97.3344C76.8607 97.4032 76.7825 97.4349 76.7048 97.4349C76.5671 97.4349 76.4529 97.4524 76.2174 97.487C75.6907 97.5738 75.5329 97.8595 75.4931 98.4559C75.4571 99.001 75.4571 99.4761 75.4571 102.125V105.116Z" fill="#0B141D"/>
<path fill-rule="evenodd" clip-rule="evenodd" d="M86.9829 104.722C87.0742 104.722 87.0742 104.669 87.0554 104.601L85.281 99.9754C85.1842 99.7193 85.0938 99.7193 84.9983 99.9754L83.352 104.601C83.3199 104.686 83.352 104.722 83.4093 104.722H86.9829ZM85.0405 97.8691C85.2599 97.3035 85.3384 97.1992 85.449 97.1992C85.5601 97.1992 85.6363 97.2863 85.8621 97.8186C86.1407 98.4675 89.0777 105.543 90.2159 108.147C90.8883 109.673 91.4326 109.946 91.8278 110.048C92.1069 110.135 92.3855 110.152 92.5727 110.152C92.6875 110.152 92.7637 110.17 92.7637 110.253C92.7637 110.358 92.5938 110.391 92.3855 110.391C92.1069 110.391 90.7396 110.391 89.4522 110.358C89.0969 110.341 88.8927 110.341 88.8927 110.238C88.8927 110.17 88.9459 110.135 89.0226 110.118C89.1314 110.085 89.2479 109.93 89.1314 109.655L87.3919 105.439C87.357 105.371 87.3189 105.337 87.2252 105.337H83.2069C83.1133 105.337 83.0559 105.389 83.016 105.475L81.8947 108.508C81.7268 108.936 81.6331 109.346 81.6331 109.655C81.6331 109.997 82.0228 110.152 82.3477 110.152H82.5309C82.6608 110.152 82.72 110.187 82.72 110.253C82.72 110.358 82.6071 110.391 82.4414 110.391C81.9907 110.391 81.1865 110.341 80.9805 110.341C80.7776 110.341 79.7481 110.391 78.8642 110.391C78.6236 110.391 78.5107 110.358 78.5107 110.253C78.5107 110.187 78.5851 110.152 78.6787 110.152C78.8105 110.152 79.0744 110.135 79.2231 110.118C80.0823 110.015 80.4527 109.365 80.7891 108.508L85.0405 97.8691Z" fill="#0B141D"/>
<path fill-rule="evenodd" clip-rule="evenodd" d="M96.2007 107.963C96.2397 109.356 96.4274 109.796 96.944 109.931C97.3086 110.017 97.731 110.034 97.9037 110.034C97.9978 110.034 98.058 110.068 98.058 110.135C98.058 110.238 97.9409 110.271 97.7118 110.271C96.6194 110.271 95.8521 110.221 95.678 110.221C95.5096 110.221 94.7014 110.271 93.8414 110.271C93.648 110.271 93.5342 110.256 93.5342 110.135C93.5342 110.068 93.5911 110.034 93.689 110.034C93.8414 110.034 94.182 110.017 94.476 109.931C94.9535 109.814 95.0514 109.321 95.0514 107.776L95.0693 98.0488C95.0693 97.3867 95.1281 97.1992 95.2767 97.1992C95.4315 97.1992 95.7599 97.5738 95.9499 97.7422C96.2397 98.0313 99.0916 100.764 102.044 103.566C103.941 105.365 106.033 107.437 106.644 107.997L106.431 99.3726C106.413 98.268 106.276 97.8972 105.689 97.7592C105.338 97.6917 104.9 97.6742 104.749 97.6742C104.61 97.6742 104.594 97.6251 104.594 97.5571C104.594 97.4559 104.749 97.4388 104.974 97.4388C105.838 97.4388 106.76 97.4888 106.967 97.4888C107.182 97.4888 107.811 97.4388 108.598 97.4388C108.811 97.4388 108.943 97.4559 108.943 97.5571C108.943 97.6251 108.866 97.6742 108.731 97.6742C108.633 97.6742 108.5 97.6742 108.271 97.7263C107.639 97.8455 107.562 98.2201 107.562 99.2389L107.525 109.185C107.525 110.307 107.49 110.391 107.353 110.391C107.2 110.391 106.967 110.204 105.955 109.304C105.746 109.134 102.985 106.638 100.951 104.703C98.7279 102.581 96.5606 100.444 95.9499 99.8314L96.2007 107.963Z" fill="#0B141D"/>
<path fill-rule="evenodd" clip-rule="evenodd" d="M117.802 104.722C117.896 104.722 117.896 104.669 117.875 104.601L116.1 99.9754C116.005 99.7193 115.911 99.7193 115.819 99.9754L114.172 104.601C114.132 104.686 114.172 104.722 114.228 104.722H117.802ZM115.855 97.8691C116.081 97.3035 116.155 97.1992 116.266 97.1992C116.381 97.1992 116.455 97.2863 116.677 97.8186C116.961 98.4675 119.896 105.543 121.036 108.147C121.713 109.673 122.249 109.946 122.647 110.048C122.93 110.135 123.207 110.152 123.395 110.152C123.503 110.152 123.581 110.17 123.581 110.253C123.581 110.358 123.413 110.391 123.207 110.391C122.93 110.391 121.562 110.391 120.268 110.358C119.913 110.341 119.712 110.341 119.712 110.238C119.712 110.17 119.764 110.135 119.836 110.118C119.953 110.085 120.064 109.93 119.953 109.655L118.215 105.439C118.176 105.371 118.14 105.337 118.047 105.337H114.021C113.932 105.337 113.872 105.389 113.836 105.475L112.713 108.508C112.547 108.936 112.449 109.346 112.449 109.655C112.449 109.997 112.843 110.152 113.161 110.152H113.349C113.483 110.152 113.54 110.187 113.54 110.253C113.54 110.358 113.425 110.391 113.255 110.391C112.808 110.391 112.004 110.341 111.8 110.341C111.594 110.341 110.56 110.391 109.681 110.391C109.44 110.391 109.328 110.358 109.328 110.253C109.328 110.187 109.398 110.152 109.496 110.152C109.625 110.152 109.887 110.135 110.037 110.118C110.896 110.015 111.274 109.365 111.611 108.508L115.855 97.8691Z" fill="#0B141D"/>
<path fill-rule="evenodd" clip-rule="evenodd" d="M136.254 105.423C136.254 107.067 136.254 108.422 136.347 109.14C136.406 109.637 136.518 110.015 137.081 110.085C137.344 110.118 137.76 110.152 137.93 110.152C138.045 110.152 138.081 110.203 138.081 110.253C138.081 110.341 137.985 110.391 137.781 110.391C136.742 110.391 135.554 110.341 135.462 110.341C135.371 110.341 134.183 110.391 133.617 110.391C133.409 110.391 133.313 110.358 133.313 110.253C133.313 110.203 133.354 110.152 133.465 110.152C133.633 110.152 133.858 110.118 134.03 110.085C134.411 110.015 134.502 109.637 134.577 109.14C134.671 108.422 134.671 107.067 134.671 105.423V98.1765L131.886 98.2118C130.717 98.2295 130.263 98.348 129.96 98.7593C129.758 99.0495 129.702 99.1697 129.646 99.2912C129.588 99.4283 129.531 99.462 129.455 99.462C129.402 99.462 129.359 99.4102 129.359 99.3072C129.359 99.1365 129.74 97.663 129.778 97.526C129.815 97.4229 129.892 97.1992 129.96 97.1992C130.096 97.1992 130.284 97.372 130.792 97.4057C131.34 97.4583 132.052 97.4915 132.279 97.4915H139.339C139.943 97.4915 140.374 97.441 140.679 97.4057C140.964 97.3544 141.129 97.3212 141.204 97.3212C141.301 97.3212 141.301 97.4229 141.301 97.526C141.301 98.039 141.245 99.2219 141.245 99.4102C141.245 99.5654 141.19 99.6327 141.116 99.6327C141.017 99.6327 140.981 99.5818 140.964 99.3417L140.939 99.155C140.862 98.6399 140.433 98.2446 138.622 98.2118L136.254 98.1765V105.423Z" fill="#0B141D"/>
<path fill-rule="evenodd" clip-rule="evenodd" d="M145.278 102.188C145.278 99.5774 145.278 99.1093 145.237 98.572C145.2 98.0024 145.048 97.7348 144.419 97.6172C144.263 97.5831 143.938 97.5659 143.765 97.5659C143.69 97.5659 143.612 97.5346 143.612 97.4668C143.612 97.3661 143.708 97.3336 143.919 97.3336C144.783 97.3336 145.989 97.3829 146.081 97.3829C146.216 97.3829 150.023 97.3829 150.46 97.3661C150.823 97.3505 151.132 97.316 151.282 97.2822C151.373 97.2662 151.452 97.1992 151.548 97.1992C151.604 97.1992 151.626 97.2662 151.626 97.3505C151.626 97.4668 151.527 97.6666 151.475 98.1368C151.452 98.3041 151.414 99.0398 151.373 99.2412C151.358 99.325 151.323 99.4262 151.242 99.4262C151.132 99.4262 151.09 99.3435 151.09 99.2075C151.09 99.0895 151.071 98.808 150.98 98.6049C150.837 98.3369 150.651 98.1368 149.62 98.0361C149.298 98.0024 147.208 97.9843 146.997 97.9843C146.919 97.9843 146.886 98.0361 146.886 98.1516V102.776C146.886 102.892 146.903 102.943 146.997 102.943C147.247 102.943 149.602 102.943 150.038 102.909C150.497 102.874 150.762 102.841 150.94 102.675C151.071 102.54 151.149 102.457 151.224 102.457C151.282 102.457 151.323 102.49 151.323 102.591C151.323 102.691 151.224 102.976 151.164 103.528C151.132 103.863 151.09 104.483 151.09 104.602C151.09 104.735 151.09 104.918 150.958 104.918C150.862 104.918 150.823 104.852 150.823 104.767C150.823 104.602 150.823 104.432 150.747 104.216C150.668 103.98 150.497 103.696 149.756 103.63C149.233 103.578 147.343 103.547 147.017 103.547C146.919 103.547 146.886 103.596 146.886 103.662V105.135C146.886 105.705 146.862 107.647 146.886 108C146.94 109.156 147.229 109.373 149.103 109.373C149.602 109.373 150.438 109.373 150.94 109.189C151.432 109.005 151.663 108.671 151.8 107.985C151.835 107.798 151.876 107.731 151.973 107.731C152.087 107.731 152.087 107.866 152.087 107.985C152.087 108.117 151.932 109.255 151.835 109.606C151.702 110.043 151.548 110.043 150.804 110.043C147.914 110.043 146.632 109.943 146.081 109.943C146.046 109.943 145.72 109.959 145.315 109.959C144.935 109.976 144.493 109.991 144.203 109.991C143.997 109.991 143.903 109.959 143.903 109.857C143.903 109.808 143.938 109.758 144.054 109.758C144.222 109.758 144.454 109.725 144.628 109.692C145.013 109.624 145.106 109.255 145.183 108.768C145.278 108.067 145.278 106.742 145.278 105.135V102.188Z" fill="#0B141D"/>
<path fill-rule="evenodd" clip-rule="evenodd" d="M157.054 108.575C155.233 107.11 154.783 105.192 154.783 103.594C154.783 102.466 155.212 100.498 156.878 98.9994C158.005 97.9909 159.707 97.1992 162.591 97.1992C163.34 97.1992 164.388 97.2517 165.31 97.402C166.021 97.5201 166.618 97.6213 167.216 97.6547C167.423 97.67 167.463 97.7373 167.463 97.8397C167.463 97.9735 167.401 98.1759 167.368 98.7813C167.327 99.3364 167.327 100.262 167.31 100.515C167.293 100.768 167.252 100.868 167.142 100.868C167.008 100.868 166.991 100.75 166.991 100.515C166.991 99.8584 166.694 99.1695 166.205 98.7987C165.549 98.2932 164.105 97.8397 162.459 97.8397C159.969 97.8397 158.809 98.496 158.157 99.0679C156.786 100.246 156.468 101.743 156.468 103.459C156.468 106.673 159.223 109.617 163.229 109.617C164.635 109.617 165.738 109.465 166.486 108.776C166.882 108.406 167.12 107.666 167.182 107.363C167.216 107.177 167.252 107.11 167.368 107.11C167.463 107.11 167.495 107.228 167.495 107.363C167.495 107.481 167.274 108.943 167.084 109.517C166.97 109.837 166.934 109.871 166.598 110.005C165.849 110.273 164.427 110.391 163.229 110.391C160.421 110.391 158.53 109.768 157.054 108.575Z" fill="#0B141D"/>
<path fill-rule="evenodd" clip-rule="evenodd" d="M183.367 105.116C183.367 106.747 183.367 108.091 183.463 108.803C183.521 109.296 183.632 109.671 184.208 109.74C184.477 109.773 184.894 109.807 185.067 109.807C185.176 109.807 185.215 109.858 185.215 109.907C185.215 109.994 185.12 110.043 184.913 110.043C183.864 110.043 182.662 109.994 182.569 109.994C182.472 109.994 181.268 110.043 180.698 110.043C180.49 110.043 180.392 110.011 180.392 109.907C180.392 109.858 180.43 109.807 180.544 109.807C180.719 109.807 180.947 109.773 181.115 109.74C181.498 109.671 181.591 109.296 181.667 108.803C181.768 108.091 181.768 106.747 181.768 105.116V103.332C181.768 103.265 181.707 103.231 181.655 103.231H173.567C173.51 103.231 173.454 103.247 173.454 103.332V105.116C173.454 106.747 173.454 108.091 173.55 108.803C173.604 109.296 173.721 109.671 174.293 109.74C174.558 109.773 174.98 109.807 175.151 109.807C175.263 109.807 175.302 109.858 175.302 109.907C175.302 109.994 175.21 110.043 175 110.043C173.948 110.043 172.753 109.994 172.651 109.994C172.562 109.994 171.36 110.043 170.786 110.043C170.576 110.043 170.478 110.011 170.478 109.907C170.478 109.858 170.519 109.807 170.632 109.807C170.805 109.807 171.03 109.773 171.203 109.74C171.586 109.671 171.681 109.296 171.756 108.803C171.851 108.091 171.851 106.747 171.851 105.116V102.125C171.851 99.4761 171.851 99.001 171.812 98.4559C171.781 97.8778 171.625 97.6063 170.997 97.487C170.842 97.4524 170.519 97.4349 170.348 97.4349C170.27 97.4349 170.192 97.4032 170.192 97.3344C170.192 97.2322 170.291 97.1992 170.499 97.1992C171.36 97.1992 172.562 97.2493 172.651 97.2493C172.753 97.2493 173.948 97.1992 174.519 97.1992C174.733 97.1992 174.828 97.2322 174.828 97.3344C174.828 97.4032 174.75 97.4349 174.673 97.4349C174.541 97.4349 174.426 97.4524 174.198 97.487C173.68 97.5738 173.53 97.8595 173.489 98.4559C173.454 99.001 173.454 99.4761 173.454 102.125V102.482C173.454 102.567 173.51 102.587 173.567 102.587H181.655C181.707 102.587 181.768 102.567 181.768 102.482V102.125C181.768 99.4761 181.768 99.001 181.731 98.4559C181.691 97.8778 181.537 97.6063 180.908 97.487C180.758 97.4524 180.43 97.4349 180.263 97.4349C180.187 97.4349 180.111 97.4032 180.111 97.3344C180.111 97.2322 180.205 97.1992 180.414 97.1992C181.268 97.1992 182.472 97.2493 182.569 97.2493C182.662 97.2493 183.864 97.1992 184.436 97.1992C184.645 97.1992 184.74 97.2322 184.74 97.3344C184.74 97.4032 184.668 97.4349 184.59 97.4349C184.456 97.4349 184.338 97.4524 184.107 97.487C183.598 97.5738 183.445 97.8595 183.408 98.4559C183.367 99.001 183.367 99.4761 183.367 102.125V105.116Z" fill="#0B141D"/>
<path fill-rule="evenodd" clip-rule="evenodd" d="M11.1035 120.168C11.1035 118.27 11.1035 117.927 11.077 117.537C11.051 117.126 10.9418 116.93 10.5011 116.845C10.3956 116.82 10.1687 116.809 10.049 116.809C9.9956 116.809 9.94263 116.782 9.94263 116.735C9.94263 116.661 10.0075 116.639 10.1541 116.639C10.7578 116.639 11.572 116.673 11.6917 116.673C11.8122 116.673 12.6123 116.639 13.0155 116.639C13.1617 116.639 13.227 116.661 13.227 116.735C13.227 116.782 13.1735 116.809 13.121 116.809C13.0265 116.809 12.9466 116.82 12.7863 116.845C12.4269 116.893 12.3196 117.114 12.2922 117.537C12.2657 117.927 12.2657 118.27 12.2657 120.168V121.872C12.2657 123.625 12.694 124.38 13.2681 124.879C13.9215 125.439 14.5239 125.549 15.2838 125.549C16.098 125.549 16.9013 125.196 17.3812 124.673C17.9954 123.978 18.1567 122.945 18.1567 121.69V120.168C18.1567 118.27 18.1567 117.927 18.1306 117.537C18.1032 117.126 17.9954 116.93 17.5557 116.845C17.4484 116.82 17.2214 116.809 17.1008 116.809C17.0488 116.809 16.9944 116.782 16.9944 116.735C16.9944 116.661 17.0611 116.639 17.2068 116.639C17.8096 116.639 18.5439 116.673 18.6247 116.673C18.717 116.673 19.3444 116.639 19.7454 116.639C19.8933 116.639 19.9582 116.661 19.9582 116.735C19.9582 116.782 19.907 116.809 19.8536 116.809C19.7609 116.809 19.6805 116.809 19.5171 116.845C19.1581 116.905 19.0517 117.114 19.0252 117.537C18.9987 117.927 18.9987 118.27 18.9987 120.168V121.471C18.9987 122.785 18.8394 124.247 17.7699 125.111C16.8081 125.89 15.8048 126.011 15.018 126.011C14.5641 126.011 13.2137 125.962 12.2657 125.148C11.6108 124.574 11.1035 123.724 11.1035 121.945V120.168Z" fill="#0B141D"/>
<path fill-rule="evenodd" clip-rule="evenodd" d="M32.6091 123.938C32.6357 124.928 32.7691 125.24 33.1319 125.336C33.3892 125.398 33.6813 125.409 33.8038 125.409C33.8703 125.409 33.9102 125.431 33.9102 125.482C33.9102 125.553 33.8304 125.578 33.6698 125.578C32.9049 125.578 32.3688 125.542 32.2482 125.542C32.128 125.542 31.5635 125.578 30.9581 125.578C30.8242 125.578 30.7444 125.566 30.7444 125.482C30.7444 125.431 30.7866 125.409 30.8535 125.409C30.9581 125.409 31.2007 125.398 31.4029 125.336C31.7368 125.252 31.8056 124.9 31.8056 123.804L31.8171 116.895C31.8171 116.425 31.857 116.291 31.9657 116.291C32.0711 116.291 32.3018 116.558 32.4353 116.679C32.6357 116.884 34.6338 118.825 36.7003 120.814C38.0307 122.092 39.49 123.564 39.9197 123.962L39.773 117.836C39.7597 117.05 39.6638 116.788 39.2497 116.69C39.0076 116.642 38.6985 116.631 38.5935 116.631C38.4981 116.631 38.4829 116.595 38.4829 116.546C38.4829 116.474 38.5935 116.463 38.754 116.463C39.3566 116.463 40 116.496 40.1468 116.496C40.2958 116.496 40.7384 116.463 41.2878 116.463C41.435 116.463 41.5304 116.474 41.5304 116.546C41.5304 116.595 41.4767 116.631 41.3813 116.631C41.3148 116.631 41.2213 116.631 41.0608 116.667C40.6182 116.751 40.5627 117.017 40.5627 117.738L40.538 124.806C40.538 125.6 40.5113 125.664 40.4178 125.664C40.3091 125.664 40.1468 125.53 39.4368 124.89C39.2901 124.77 37.357 122.998 35.9372 121.622C34.3798 120.118 32.8645 118.595 32.4353 118.163L32.6091 123.938Z" fill="#0B141D"/>
<path fill-rule="evenodd" clip-rule="evenodd" d="M55.2411 122.415C55.2411 123.606 55.2411 124.584 55.3101 125.106C55.3472 125.465 55.4301 125.738 55.8381 125.787C56.027 125.812 56.3257 125.839 56.4452 125.839C56.5263 125.839 56.5536 125.874 56.5536 125.913C56.5536 125.975 56.4897 126.011 56.3396 126.011C55.5954 126.011 54.7419 125.975 54.6724 125.975C54.6052 125.975 53.7536 126.011 53.3446 126.011C53.1964 126.011 53.1288 125.986 53.1288 125.913C53.1288 125.874 53.1557 125.839 53.239 125.839C53.3581 125.839 53.522 125.812 53.6433 125.787C53.9152 125.738 53.9805 125.465 54.0347 125.106C54.1041 124.584 54.1041 123.606 54.1041 122.415V120.233C54.1041 118.3 54.1041 117.951 54.0768 117.554C54.0481 117.135 53.9152 116.923 53.6165 116.861C53.4678 116.823 53.2928 116.812 53.1964 116.812C53.1427 116.812 53.0867 116.784 53.0867 116.737C53.0867 116.662 53.1557 116.639 53.3039 116.639C53.7536 116.639 54.6052 116.673 54.6724 116.673C54.7419 116.673 55.5954 116.639 56.0002 116.639C56.1488 116.639 56.2164 116.662 56.2164 116.737C56.2164 116.784 56.1623 116.812 56.1099 116.812C56.0136 116.812 55.9326 116.823 55.7686 116.849C55.4027 116.91 55.2953 117.122 55.2661 117.554C55.2411 117.951 55.2411 118.3 55.2411 120.233V122.415Z" fill="#0B141D"/>
<path fill-rule="evenodd" clip-rule="evenodd" d="M72.6552 124.356C73.4387 122.725 75.2477 118.476 75.5456 117.6C75.6173 117.416 75.6695 117.246 75.6695 117.136C75.6695 117.04 75.627 116.918 75.4882 116.857C75.3287 116.809 75.1265 116.809 74.9804 116.809C74.8994 116.809 74.8337 116.796 74.8337 116.735C74.8337 116.661 74.9147 116.639 75.1265 116.639C75.6695 116.639 76.293 116.673 76.4526 116.673C76.5331 116.673 77.1182 116.639 77.5072 116.639C77.6594 116.639 77.7403 116.661 77.7403 116.723C77.7403 116.782 77.6844 116.809 77.578 116.809C77.4841 116.809 77.1839 116.809 76.9281 116.955C76.7528 117.064 76.547 117.27 76.183 118.098C76.0387 118.44 75.3592 119.9 74.67 121.398C73.8448 123.177 73.2366 124.491 72.9225 125.085C72.5432 125.817 72.4914 126.011 72.3531 126.011C72.1954 126.011 72.1219 125.842 71.8661 125.259L68.552 117.796C68.2532 117.114 68.0529 116.978 67.5778 116.857C67.3739 116.809 67.1449 116.809 67.064 116.809C66.9812 116.809 66.9543 116.772 66.9543 116.723C66.9543 116.651 67.0908 116.639 67.3045 116.639C67.9571 116.639 68.7268 116.673 68.8864 116.673C69.0251 116.673 69.6352 116.639 70.1491 116.639C70.3896 116.639 70.5145 116.661 70.5145 116.723C70.5145 116.782 70.4706 116.809 70.3781 116.809C70.2301 116.809 69.9854 116.82 69.8647 116.869C69.7162 116.93 69.6894 117.028 69.6894 117.114C69.6894 117.27 69.8508 117.65 70.0548 118.123L72.6552 124.356Z" fill="#0B141D"/>
<path fill-rule="evenodd" clip-rule="evenodd" d="M89.2751 119.932C89.2751 118.026 89.2751 117.682 89.251 117.291C89.2198 116.878 89.1176 116.681 88.6885 116.596C88.5827 116.571 88.3642 116.56 88.2433 116.56C88.1911 116.56 88.1411 116.533 88.1411 116.486C88.1411 116.411 88.2062 116.389 88.3485 116.389C88.932 116.389 89.756 116.423 89.8247 116.423C89.9121 116.423 92.5106 116.423 92.8077 116.411C93.0566 116.401 93.268 116.375 93.3738 116.35C93.4349 116.338 93.4929 116.291 93.5558 116.291C93.5928 116.291 93.6093 116.338 93.6093 116.401C93.6093 116.486 93.5388 116.632 93.5 116.973C93.4929 117.095 93.4683 117.635 93.4349 117.781C93.4219 117.842 93.3996 117.915 93.3443 117.915C93.268 117.915 93.2381 117.854 93.2381 117.757C93.2381 117.672 93.2288 117.463 93.1605 117.317C93.0731 117.121 92.9375 116.973 92.2398 116.901C92.0167 116.878 90.5951 116.865 90.4483 116.865C90.3943 116.865 90.3738 116.901 90.3738 116.985V120.36C90.3738 120.445 90.3849 120.481 90.4483 120.481C90.6187 120.481 92.2246 120.481 92.5253 120.459C92.8389 120.432 93.0191 120.408 93.1342 120.287C93.2288 120.189 93.2828 120.126 93.3349 120.126C93.3738 120.126 93.3996 120.151 93.3996 120.225C93.3996 120.298 93.3349 120.505 93.2939 120.911C93.268 121.154 93.2381 121.606 93.2381 121.693C93.2381 121.788 93.2381 121.922 93.1529 121.922C93.082 121.922 93.0566 121.875 93.0566 121.813C93.0566 121.693 93.0566 121.569 93.0084 121.409C92.9544 121.239 92.8389 121.03 92.3268 120.982C91.9721 120.947 90.6803 120.923 90.463 120.923C90.3943 120.923 90.3738 120.957 90.3738 121.006V122.082C90.3738 122.498 90.3537 123.916 90.3738 124.173C90.4095 125.017 90.6058 125.175 91.8829 125.175C92.2246 125.175 92.8001 125.175 93.1342 125.041C93.4759 124.906 93.632 124.661 93.7226 124.159C93.7507 124.026 93.7748 123.977 93.8395 123.977C93.9193 123.977 93.9193 124.075 93.9193 124.159C93.9193 124.259 93.8136 125.088 93.7507 125.345C93.6615 125.664 93.5558 125.664 93.0432 125.664C91.0737 125.664 90.1998 125.591 89.8247 125.591C89.7952 125.591 89.5775 125.602 89.2974 125.602C89.0413 125.615 88.7424 125.627 88.5457 125.627C88.403 125.627 88.3338 125.602 88.3338 125.53C88.3338 125.492 88.3642 125.457 88.4418 125.457C88.5587 125.457 88.7148 125.431 88.8276 125.406C89.0953 125.358 89.1546 125.088 89.2104 124.735C89.2751 124.22 89.2751 123.256 89.2751 122.082V119.932Z" fill="#0B141D"/>
<path fill-rule="evenodd" clip-rule="evenodd" d="M107.774 121.311C107.774 121.374 107.802 121.424 107.87 121.459C108.077 121.572 108.708 121.658 109.315 121.658C109.643 121.658 110.028 121.622 110.346 121.424C110.824 121.128 111.185 120.456 111.185 119.515C111.185 117.965 110.273 117.035 108.803 117.035C108.392 117.035 108.023 117.072 107.884 117.11C107.813 117.135 107.774 117.183 107.774 117.258V121.311ZM106.673 120.233C106.673 118.3 106.673 117.951 106.646 117.554C106.62 117.135 106.51 116.935 106.055 116.849C105.947 116.823 105.712 116.812 105.585 116.812C105.532 116.812 105.476 116.784 105.476 116.737C105.476 116.662 105.548 116.639 105.696 116.639C106.319 116.639 107.18 116.673 107.246 116.673C107.4 116.673 108.446 116.639 108.872 116.639C109.741 116.639 110.658 116.713 111.388 117.183C111.732 117.408 112.339 118.014 112.339 118.87C112.339 119.787 111.914 120.702 110.674 121.732C111.801 123.034 112.74 124.14 113.538 124.909C114.276 125.615 114.869 125.75 115.214 125.801C115.477 125.839 115.669 125.839 115.75 125.839C115.82 125.839 115.877 125.874 115.877 125.913C115.877 125.986 115.793 126.011 115.542 126.011H114.566C113.793 126.011 113.454 125.95 113.096 125.777C112.503 125.491 112.021 124.883 111.24 123.954C110.658 123.27 110.015 122.44 109.741 122.117C109.68 122.067 109.643 122.043 109.563 122.043L107.87 122.02C107.802 122.02 107.774 122.055 107.774 122.117V122.415C107.774 123.606 107.774 124.584 107.843 125.106C107.884 125.465 107.966 125.738 108.377 125.787C108.573 125.812 108.872 125.839 108.999 125.839C109.083 125.839 109.107 125.874 109.107 125.913C109.107 125.975 109.039 126.011 108.886 126.011C108.131 126.011 107.262 125.975 107.199 125.975C107.18 125.975 106.319 126.011 105.902 126.011C105.751 126.011 105.679 125.986 105.679 125.913C105.679 125.874 105.712 125.839 105.794 125.839C105.916 125.839 106.082 125.812 106.205 125.787C106.483 125.738 106.55 125.465 106.604 125.106C106.673 124.584 106.673 123.606 106.673 122.415V120.233Z" fill="#0B141D"/>
<path fill-rule="evenodd" clip-rule="evenodd" d="M125.339 125.343C125.142 125.258 125.122 125.21 125.122 124.887C125.122 124.29 125.184 123.813 125.192 123.62C125.207 123.491 125.235 123.43 125.311 123.43C125.395 123.43 125.408 123.465 125.408 123.56C125.408 123.667 125.408 123.837 125.442 124.003C125.661 124.887 126.579 125.222 127.519 125.222C128.863 125.222 129.518 124.397 129.518 123.632C129.518 122.809 129.117 122.329 127.911 121.481L127.278 121.039C125.796 120 125.46 119.256 125.46 118.443C125.46 117.166 126.579 116.291 128.358 116.291C128.906 116.291 129.306 116.34 129.659 116.412C129.926 116.461 130.039 116.473 130.149 116.473C130.26 116.473 130.286 116.495 130.286 116.556C130.286 116.616 130.231 117.01 130.231 117.823C130.231 118.015 130.203 118.097 130.139 118.097C130.051 118.097 130.039 118.039 130.023 117.942C130.01 117.799 129.926 117.476 129.84 117.343C129.756 117.213 129.376 116.711 128.092 116.711C127.125 116.711 126.37 117.224 126.37 118.097C126.37 118.779 126.76 119.187 128.082 120.107L128.47 120.369C130.123 121.481 130.515 122.222 130.515 123.178C130.515 123.667 130.286 124.576 129.323 125.162C128.723 125.52 127.964 125.664 127.211 125.664C126.553 125.664 125.907 125.583 125.339 125.343Z" fill="#0B141D"/>
<path fill-rule="evenodd" clip-rule="evenodd" d="M144.608 122.415C144.608 123.606 144.608 124.584 144.676 125.106C144.716 125.465 144.799 125.738 145.203 125.787C145.394 125.812 145.692 125.839 145.814 125.839C145.899 125.839 145.923 125.874 145.923 125.913C145.923 125.975 145.857 126.011 145.704 126.011C144.963 126.011 144.109 125.975 144.04 125.975C143.973 125.975 143.118 126.011 142.715 126.011C142.565 126.011 142.497 125.986 142.497 125.913C142.497 125.874 142.524 125.839 142.604 125.839C142.722 125.839 142.888 125.812 143.01 125.787C143.281 125.738 143.345 125.465 143.403 125.106C143.472 124.584 143.472 123.606 143.472 122.415V120.233C143.472 118.3 143.472 117.951 143.441 117.554C143.416 117.135 143.281 116.923 142.981 116.861C142.831 116.823 142.655 116.812 142.565 116.812C142.512 116.812 142.456 116.784 142.456 116.737C142.456 116.662 142.524 116.639 142.672 116.639C143.118 116.639 143.973 116.673 144.04 116.673C144.109 116.673 144.963 116.639 145.367 116.639C145.515 116.639 145.583 116.662 145.583 116.737C145.583 116.784 145.533 116.812 145.477 116.812C145.381 116.812 145.3 116.823 145.138 116.849C144.772 116.91 144.662 117.122 144.635 117.554C144.608 117.951 144.608 118.3 144.608 120.233V122.415Z" fill="#0B141D"/>
<path fill-rule="evenodd" clip-rule="evenodd" d="M161.602 122.134C161.602 123.302 161.602 124.263 161.666 124.776C161.708 125.127 161.79 125.395 162.19 125.444C162.376 125.468 162.671 125.494 162.79 125.494C162.87 125.494 162.9 125.529 162.9 125.567C162.9 125.628 162.83 125.664 162.684 125.664C161.948 125.664 161.106 125.628 161.035 125.628C160.973 125.628 160.127 125.664 159.729 125.664C159.585 125.664 159.513 125.639 159.513 125.567C159.513 125.529 159.543 125.494 159.623 125.494C159.745 125.494 159.902 125.468 160.026 125.444C160.294 125.395 160.357 125.127 160.408 124.776C160.476 124.263 160.476 123.302 160.476 122.134V116.987L158.5 117.011C157.674 117.023 157.353 117.108 157.136 117.401C156.994 117.607 156.954 117.693 156.908 117.778C156.866 117.875 156.828 117.899 156.779 117.899C156.737 117.899 156.709 117.861 156.709 117.788C156.709 117.667 156.98 116.622 157.003 116.525C157.032 116.45 157.081 116.291 157.136 116.291C157.228 116.291 157.361 116.414 157.724 116.44C158.109 116.476 158.623 116.498 158.781 116.498H163.796C164.221 116.498 164.53 116.464 164.74 116.44C164.942 116.403 165.062 116.378 165.117 116.378C165.184 116.378 165.184 116.45 165.184 116.525C165.184 116.89 165.142 117.728 165.142 117.861C165.142 117.971 165.102 118.021 165.047 118.021C164.982 118.021 164.956 117.984 164.942 117.814L164.925 117.679C164.874 117.316 164.569 117.035 163.281 117.011L161.602 116.987V122.134Z" fill="#0B141D"/>
<path fill-rule="evenodd" clip-rule="evenodd" d="M179.084 122.8C179.084 122.131 178.952 121.858 178.778 121.498C178.687 121.299 176.901 118.573 176.43 117.926C176.097 117.468 175.76 117.159 175.523 117.011C175.323 116.886 175.069 116.812 174.949 116.812C174.88 116.812 174.814 116.784 174.814 116.725C174.814 116.673 174.87 116.639 174.987 116.639C175.244 116.639 176.242 116.673 176.309 116.673C176.404 116.673 176.906 116.639 177.434 116.639C177.577 116.639 177.607 116.673 177.607 116.725C177.607 116.775 177.527 116.784 177.403 116.836C177.296 116.886 177.235 116.961 177.235 117.06C177.235 117.208 177.296 117.355 177.403 117.544C177.616 117.903 179.618 121.101 179.86 121.459C180.108 120.94 181.805 118.224 182.073 117.817C182.248 117.554 182.301 117.346 182.301 117.183C182.301 117.011 182.248 116.873 182.087 116.836C181.967 116.799 181.887 116.775 181.887 116.713C181.887 116.662 181.967 116.639 182.1 116.639C182.448 116.639 182.874 116.673 182.98 116.673C183.061 116.673 184.021 116.639 184.278 116.639C184.371 116.639 184.445 116.662 184.445 116.713C184.445 116.775 184.381 116.812 184.278 116.812C184.124 116.812 183.87 116.861 183.665 116.984C183.398 117.135 183.251 117.282 182.957 117.617C182.512 118.113 180.647 121.025 180.408 121.559C180.202 122.005 180.202 122.39 180.202 122.8V123.867C180.202 124.064 180.202 124.584 180.249 125.106C180.273 125.465 180.393 125.738 180.792 125.787C180.976 125.812 181.27 125.839 181.391 125.839C181.47 125.839 181.499 125.874 181.499 125.913C181.499 125.975 181.435 126.011 181.285 126.011C180.554 126.011 179.716 125.975 179.645 125.975C179.578 125.975 178.738 126.011 178.338 126.011C178.19 126.011 178.126 125.986 178.126 125.913C178.126 125.874 178.15 125.839 178.23 125.839C178.351 125.839 178.511 125.812 178.631 125.787C178.897 125.738 179.017 125.465 179.046 125.106C179.084 124.584 179.084 124.064 179.084 123.867V122.8Z" fill="#0B141D"/>
<path fill-rule="evenodd" clip-rule="evenodd" d="M187.644 124.918C187.931 124.918 188.433 124.967 188.433 124.634C188.433 124.418 188.12 124.38 187.87 124.38H187.254V124.918H187.644ZM188.725 126.177H188.335L187.644 125.212H187.254V126.177H186.93V124.085H187.935C188.351 124.085 188.757 124.187 188.757 124.639C188.757 125.05 188.438 125.202 188.027 125.212L188.725 126.177ZM189.513 125.143C189.513 124.242 188.687 123.528 187.718 123.528C186.752 123.528 185.925 124.242 185.925 125.143C185.925 126.044 186.752 126.759 187.718 126.759C188.687 126.759 189.513 126.044 189.513 125.143ZM185.6 125.143C185.6 124.081 186.535 123.234 187.718 123.234C188.903 123.234 189.838 124.081 189.838 125.143C189.838 126.206 188.903 127.053 187.718 127.053C186.535 127.053 185.6 126.206 185.6 125.143Z" fill="#0B141D"/>
</g>
</svg>
